<svg xmlns:xlink="http://www.w3.org/1999/xlink" xmlns="http://www.w3.org/2000/svg" version="1.1" width="42px" height="52px">
  <defs>
    <mask fill="white" id="clip227">
      <path d="M 41.8834599056604 21.4096913825757  C 41.8834599056604 9.58299678030301  32.5336061320754 0  21 0  C 9.46634433962254 0  0.116540094339598 9.58299678030301  0.116540094339598 21.4096913825757  C 0.116540094339598 27.3199850378788  2.45546462264156 32.6708810606061  6.23239386792443 36.5472446969698  L 21 51.6848484848484  L 35.7675566037735 36.5472446969698  C 39.6936889561202 32.5264403623991  41.8933571457308 27.0820124748727  41.8834599056604 21.4096913825757  Z M 21 30.9227319128788  L 21 30.9197035037879  C 15.8686039428048 30.906346458106  11.7157232158895 26.6633896539946  11.7157232158895 21.4340505455688  C 11.7157232158895 21.4238950410389  11.7157392194185 21.4137395430571  11.715771226415 21.4035840909091  C 11.7157453670684 21.3944573317697  11.7157324373748 21.3853305393416  11.7157324373748 21.3762037421562  C 11.7157324373748 16.1473587607136  15.8690849119282 11.9052673009661  21 11.893571969697  C 26.1313766557655 11.9069567901272  30.2842272562154 16.1499053910333  30.2842272562154 21.3792247988605  C 30.2842272562154 21.3893803464084  30.2842112525507 21.3995358874101  30.284179245283 21.4096913825757  C 30.2842111415423 21.4198276333977  30.2842270897031 21.4299639298223  30.2842270897031 21.4401002327626  C 30.2842270897031 23.7557026929946  29.4696815683199 25.877786116484  28.1164106239503 27.5246361097976  C 26.4138797543048 29.596514592785  23.8586652133922 30.9162032427682  21 30.9227319128788  Z " fill-rule="evenodd" />
    </mask>
  </defs>
  <g transform="matrix(1 0 0 1 -1369 -513 )">
    <path d="M 41.8834599056604 21.4096913825757  C 41.8834599056604 9.58299678030301  32.5336061320754 0  21 0  C 9.46634433962254 0  0.116540094339598 9.58299678030301  0.116540094339598 21.4096913825757  C 0.116540094339598 27.3199850378788  2.45546462264156 32.6708810606061  6.23239386792443 36.5472446969698  L 21 51.6848484848484  L 35.7675566037735 36.5472446969698  C 39.6936889561202 32.5264403623991  41.8933571457308 27.0820124748727  41.8834599056604 21.4096913825757  Z M 21 30.9227319128788  L 21 30.9197035037879  C 15.8686039428048 30.906346458106  11.7157232158895 26.6633896539946  11.7157232158895 21.4340505455688  C 11.7157232158895 21.4238950410389  11.7157392194185 21.4137395430571  11.715771226415 21.4035840909091  C 11.7157453670684 21.3944573317697  11.7157324373748 21.3853305393416  11.7157324373748 21.3762037421562  C 11.7157324373748 16.1473587607136  15.8690849119282 11.9052673009661  21 11.893571969697  C 26.1313766557655 11.9069567901272  30.2842272562154 16.1499053910333  30.2842272562154 21.3792247988605  C 30.2842272562154 21.3893803464084  30.2842112525507 21.3995358874101  30.284179245283 21.4096913825757  C 30.2842111415423 21.4198276333977  30.2842270897031 21.4299639298223  30.2842270897031 21.4401002327626  C 30.2842270897031 23.7557026929946  29.4696815683199 25.877786116484  28.1164106239503 27.5246361097976  C 26.4138797543048 29.596514592785  23.8586652133922 30.9162032427682  21 30.9227319128788  Z " fill-rule="nonzero" fill="#d81e06" stroke="none" transform="matrix(1 0 0 1 1369 513 )" />
    <path d="M 41.8834599056604 21.4096913825757  C 41.8834599056604 9.58299678030301  32.5336061320754 0  21 0  C 9.46634433962254 0  0.116540094339598 9.58299678030301  0.116540094339598 21.4096913825757  C 0.116540094339598 27.3199850378788  2.45546462264156 32.6708810606061  6.23239386792443 36.5472446969698  L 21 51.6848484848484  L 35.7675566037735 36.5472446969698  C 39.6936889561202 32.5264403623991  41.8933571457308 27.0820124748727  41.8834599056604 21.4096913825757  Z " stroke-width="4" stroke="#ffffff" fill="none" transform="matrix(1 0 0 1 1369 513 )" mask="url(#clip227)" />
    <path d="M 21 30.9227319128788  L 21 30.9197035037879  C 15.8686039428048 30.906346458106  11.7157232158895 26.6633896539946  11.7157232158895 21.4340505455688  C 11.7157232158895 21.4238950410389  11.7157392194185 21.4137395430571  11.715771226415 21.4035840909091  C 11.7157453670684 21.3944573317697  11.7157324373748 21.3853305393416  11.7157324373748 21.3762037421562  C 11.7157324373748 16.1473587607136  15.8690849119282 11.9052673009661  21 11.893571969697  C 26.1313766557655 11.9069567901272  30.2842272562154 16.1499053910333  30.2842272562154 21.3792247988605  C 30.2842272562154 21.3893803464084  30.2842112525507 21.3995358874101  30.284179245283 21.4096913825757  C 30.2842111415423 21.4198276333977  30.2842270897031 21.4299639298223  30.2842270897031 21.4401002327626  C 30.2842270897031 23.7557026929946  29.4696815683199 25.877786116484  28.1164106239503 27.5246361097976  C 26.4138797543048 29.596514592785  23.8586652133922 30.9162032427682  21 30.9227319128788  Z " stroke-width="4" stroke="#ffffff" fill="none" transform="matrix(1 0 0 1 1369 513 )" mask="url(#clip227)" />
  </g>
</svg>